<mxfile host="app.diagrams.net" agent="Mozilla/5.0 (Macintosh; Intel Mac OS X 10_15_7) AppleWebKit/537.36 (KHTML, like Gecko) Chrome/131.0.0.0 Safari/537.36" version="24.8.4">
  <diagram name="페이지-1" id="GOYrPaY_QbSEcktTGVvX">
    <mxGraphModel dx="1307" dy="862" grid="0" gridSize="10" guides="1" tooltips="1" connect="1" arrows="1" fold="1" page="1" pageScale="1" pageWidth="1600" pageHeight="1400" math="0" shadow="0">
      <root>
        <mxCell id="0" />
        <mxCell id="1" parent="0" />
        <mxCell id="rsjg-_d3t-QEi8Iie9K--50" style="edgeStyle=orthogonalEdgeStyle;rounded=0;orthogonalLoop=1;jettySize=auto;html=1;entryX=-0.596;entryY=0.441;entryDx=0;entryDy=0;entryPerimeter=0;exitX=0.75;exitY=1;exitDx=0;exitDy=0;" edge="1" parent="1" source="rsjg-_d3t-QEi8Iie9K--1" target="rsjg-_d3t-QEi8Iie9K--79">
          <mxGeometry relative="1" as="geometry">
            <Array as="points">
              <mxPoint x="707" y="404" />
              <mxPoint x="707" y="679" />
            </Array>
          </mxGeometry>
        </mxCell>
        <mxCell id="rsjg-_d3t-QEi8Iie9K--76" value="4. 잠재 고객 객체 삽입 완료&lt;br&gt;HTTPS 200 OK&lt;br&gt;Response : https://org.officenext.net/ko/signin" style="edgeLabel;html=1;align=left;verticalAlign=middle;resizable=0;points=[];" vertex="1" connectable="0" parent="rsjg-_d3t-QEi8Iie9K--50">
          <mxGeometry x="-0.2509" relative="1" as="geometry">
            <mxPoint x="19" y="23" as="offset" />
          </mxGeometry>
        </mxCell>
        <mxCell id="rsjg-_d3t-QEi8Iie9K--91" style="edgeStyle=orthogonalEdgeStyle;rounded=0;orthogonalLoop=1;jettySize=auto;html=1;entryX=0.5;entryY=0;entryDx=0;entryDy=0;" edge="1" parent="1" source="rsjg-_d3t-QEi8Iie9K--1" target="rsjg-_d3t-QEi8Iie9K--90">
          <mxGeometry relative="1" as="geometry" />
        </mxCell>
        <mxCell id="rsjg-_d3t-QEi8Iie9K--94" value="2. 신규 유저 추가" style="edgeLabel;html=1;align=center;verticalAlign=middle;resizable=0;points=[];" vertex="1" connectable="0" parent="rsjg-_d3t-QEi8Iie9K--91">
          <mxGeometry x="-0.5355" y="1" relative="1" as="geometry">
            <mxPoint x="22" y="-10" as="offset" />
          </mxGeometry>
        </mxCell>
        <mxCell id="rsjg-_d3t-QEi8Iie9K--1" value="front-end app" style="rounded=1;whiteSpace=wrap;html=1;" vertex="1" parent="1">
          <mxGeometry x="626" y="344" width="120" height="60" as="geometry" />
        </mxCell>
        <mxCell id="rsjg-_d3t-QEi8Iie9K--2" value="S&lt;span style=&quot;background-color: initial;&quot;&gt;alesforce app&lt;/span&gt;" style="rounded=1;whiteSpace=wrap;html=1;" vertex="1" parent="1">
          <mxGeometry x="760" y="697" width="120" height="60" as="geometry" />
        </mxCell>
        <mxCell id="rsjg-_d3t-QEi8Iie9K--10" value="OX" style="shape=umlFrame;whiteSpace=wrap;html=1;pointerEvents=0;" vertex="1" parent="1">
          <mxGeometry x="600" y="300" width="300" height="200" as="geometry" />
        </mxCell>
        <mxCell id="rsjg-_d3t-QEi8Iie9K--11" value="Saleforce" style="shape=umlFrame;whiteSpace=wrap;html=1;pointerEvents=0;width=100;height=30;" vertex="1" parent="1">
          <mxGeometry x="600" y="577" width="300" height="200" as="geometry" />
        </mxCell>
        <mxCell id="rsjg-_d3t-QEi8Iie9K--12" value="Pardot app" style="rounded=1;whiteSpace=wrap;html=1;" vertex="1" parent="1">
          <mxGeometry x="630" y="697" width="120" height="60" as="geometry" />
        </mxCell>
        <mxCell id="rsjg-_d3t-QEi8Iie9K--17" value="MainViewer" style="rounded=1;whiteSpace=wrap;html=1;arcSize=0;" vertex="1" parent="1">
          <mxGeometry x="760" y="597" width="120" height="60" as="geometry" />
        </mxCell>
        <mxCell id="rsjg-_d3t-QEi8Iie9K--18" value="" style="endArrow=open;dashed=1;html=1;rounded=0;entryX=0.5;entryY=1;entryDx=0;entryDy=0;startArrow=none;startFill=0;endFill=0;" edge="1" parent="1" source="rsjg-_d3t-QEi8Iie9K--12" target="rsjg-_d3t-QEi8Iie9K--17">
          <mxGeometry width="50" height="50" relative="1" as="geometry">
            <mxPoint x="530" y="687" as="sourcePoint" />
            <mxPoint x="580" y="637" as="targetPoint" />
          </mxGeometry>
        </mxCell>
        <mxCell id="rsjg-_d3t-QEi8Iie9K--84" value="Provide" style="edgeLabel;html=1;align=center;verticalAlign=middle;resizable=0;points=[];" vertex="1" connectable="0" parent="rsjg-_d3t-QEi8Iie9K--18">
          <mxGeometry x="-0.2196" y="-1" relative="1" as="geometry">
            <mxPoint x="-10" y="2" as="offset" />
          </mxGeometry>
        </mxCell>
        <mxCell id="rsjg-_d3t-QEi8Iie9K--19" value="" style="endArrow=open;dashed=1;html=1;rounded=0;entryX=0.5;entryY=1;entryDx=0;entryDy=0;startArrow=none;startFill=0;endFill=0;" edge="1" parent="1" source="rsjg-_d3t-QEi8Iie9K--2" target="rsjg-_d3t-QEi8Iie9K--17">
          <mxGeometry width="50" height="50" relative="1" as="geometry">
            <mxPoint x="730" y="587" as="sourcePoint" />
            <mxPoint x="730" y="567" as="targetPoint" />
          </mxGeometry>
        </mxCell>
        <mxCell id="rsjg-_d3t-QEi8Iie9K--85" value="Provide" style="edgeLabel;html=1;align=center;verticalAlign=middle;resizable=0;points=[];" vertex="1" connectable="0" parent="rsjg-_d3t-QEi8Iie9K--19">
          <mxGeometry x="-0.0935" y="2" relative="1" as="geometry">
            <mxPoint x="2" y="5" as="offset" />
          </mxGeometry>
        </mxCell>
        <mxCell id="rsjg-_d3t-QEi8Iie9K--45" value="" style="group" vertex="1" connectable="0" parent="1">
          <mxGeometry x="370" y="319" width="140" height="110" as="geometry" />
        </mxCell>
        <mxCell id="rsjg-_d3t-QEi8Iie9K--37" value="&lt;div&gt;&lt;br&gt;&lt;/div&gt;Browser" style="rounded=0;whiteSpace=wrap;html=1;" vertex="1" parent="rsjg-_d3t-QEi8Iie9K--45">
          <mxGeometry x="5" y="8" width="130" height="94" as="geometry" />
        </mxCell>
        <mxCell id="rsjg-_d3t-QEi8Iie9K--38" value="" style="endArrow=none;html=1;rounded=0;entryX=0.996;entryY=0.17;entryDx=0;entryDy=0;entryPerimeter=0;exitX=0.004;exitY=0.17;exitDx=0;exitDy=0;exitPerimeter=0;" edge="1" parent="rsjg-_d3t-QEi8Iie9K--45" source="rsjg-_d3t-QEi8Iie9K--37" target="rsjg-_d3t-QEi8Iie9K--37">
          <mxGeometry width="50" height="50" relative="1" as="geometry">
            <mxPoint x="230" y="66" as="sourcePoint" />
            <mxPoint x="280" y="-34" as="targetPoint" />
          </mxGeometry>
        </mxCell>
        <mxCell id="rsjg-_d3t-QEi8Iie9K--36" value="" style="dashed=0;outlineConnect=0;html=1;align=center;labelPosition=center;verticalLabelPosition=bottom;verticalAlign=top;shape=mxgraph.weblogos.chrome" vertex="1" parent="rsjg-_d3t-QEi8Iie9K--45">
          <mxGeometry width="40" height="40" as="geometry" />
        </mxCell>
        <mxCell id="rsjg-_d3t-QEi8Iie9K--39" value="" style="ellipse;whiteSpace=wrap;html=1;aspect=fixed;" vertex="1" parent="rsjg-_d3t-QEi8Iie9K--45">
          <mxGeometry x="106" y="13" width="6" height="6" as="geometry" />
        </mxCell>
        <mxCell id="rsjg-_d3t-QEi8Iie9K--43" value="" style="ellipse;whiteSpace=wrap;html=1;aspect=fixed;" vertex="1" parent="rsjg-_d3t-QEi8Iie9K--45">
          <mxGeometry x="115" y="13" width="6" height="6" as="geometry" />
        </mxCell>
        <mxCell id="rsjg-_d3t-QEi8Iie9K--44" value="" style="ellipse;whiteSpace=wrap;html=1;aspect=fixed;" vertex="1" parent="rsjg-_d3t-QEi8Iie9K--45">
          <mxGeometry x="124" y="13" width="6" height="6" as="geometry" />
        </mxCell>
        <mxCell id="rsjg-_d3t-QEi8Iie9K--65" style="edgeStyle=orthogonalEdgeStyle;rounded=0;orthogonalLoop=1;jettySize=auto;html=1;entryX=0;entryY=0.5;entryDx=0;entryDy=0;" edge="1" parent="1" source="rsjg-_d3t-QEi8Iie9K--49" target="rsjg-_d3t-QEi8Iie9K--37">
          <mxGeometry relative="1" as="geometry" />
        </mxCell>
        <mxCell id="rsjg-_d3t-QEi8Iie9K--49" value="OfficeNext Users" style="shape=umlActor;verticalLabelPosition=bottom;verticalAlign=top;html=1;outlineConnect=0;" vertex="1" parent="1">
          <mxGeometry x="240" y="344" width="30" height="60" as="geometry" />
        </mxCell>
        <mxCell id="rsjg-_d3t-QEi8Iie9K--64" style="edgeStyle=orthogonalEdgeStyle;rounded=0;orthogonalLoop=1;jettySize=auto;html=1;" edge="1" parent="1" source="rsjg-_d3t-QEi8Iie9K--37" target="rsjg-_d3t-QEi8Iie9K--1">
          <mxGeometry relative="1" as="geometry" />
        </mxCell>
        <mxCell id="rsjg-_d3t-QEi8Iie9K--89" value="1. 회원 가입" style="edgeLabel;html=1;align=center;verticalAlign=middle;resizable=0;points=[];" vertex="1" connectable="0" parent="rsjg-_d3t-QEi8Iie9K--64">
          <mxGeometry x="-0.4513" y="-1" relative="1" as="geometry">
            <mxPoint x="14" y="-11" as="offset" />
          </mxGeometry>
        </mxCell>
        <mxCell id="rsjg-_d3t-QEi8Iie9K--66" value="" style="group" vertex="1" connectable="0" parent="1">
          <mxGeometry x="370" y="572" width="140" height="110" as="geometry" />
        </mxCell>
        <mxCell id="rsjg-_d3t-QEi8Iie9K--67" value="&lt;div&gt;&lt;br&gt;&lt;/div&gt;Browser" style="rounded=0;whiteSpace=wrap;html=1;" vertex="1" parent="rsjg-_d3t-QEi8Iie9K--66">
          <mxGeometry x="5" y="8" width="130" height="94" as="geometry" />
        </mxCell>
        <mxCell id="rsjg-_d3t-QEi8Iie9K--68" value="" style="endArrow=none;html=1;rounded=0;entryX=0.996;entryY=0.17;entryDx=0;entryDy=0;entryPerimeter=0;exitX=0.004;exitY=0.17;exitDx=0;exitDy=0;exitPerimeter=0;" edge="1" parent="rsjg-_d3t-QEi8Iie9K--66" source="rsjg-_d3t-QEi8Iie9K--67" target="rsjg-_d3t-QEi8Iie9K--67">
          <mxGeometry width="50" height="50" relative="1" as="geometry">
            <mxPoint x="230" y="66" as="sourcePoint" />
            <mxPoint x="280" y="-34" as="targetPoint" />
          </mxGeometry>
        </mxCell>
        <mxCell id="rsjg-_d3t-QEi8Iie9K--69" value="" style="dashed=0;outlineConnect=0;html=1;align=center;labelPosition=center;verticalLabelPosition=bottom;verticalAlign=top;shape=mxgraph.weblogos.chrome" vertex="1" parent="rsjg-_d3t-QEi8Iie9K--66">
          <mxGeometry width="40" height="40" as="geometry" />
        </mxCell>
        <mxCell id="rsjg-_d3t-QEi8Iie9K--70" value="" style="ellipse;whiteSpace=wrap;html=1;aspect=fixed;" vertex="1" parent="rsjg-_d3t-QEi8Iie9K--66">
          <mxGeometry x="106" y="13" width="6" height="6" as="geometry" />
        </mxCell>
        <mxCell id="rsjg-_d3t-QEi8Iie9K--71" value="" style="ellipse;whiteSpace=wrap;html=1;aspect=fixed;" vertex="1" parent="rsjg-_d3t-QEi8Iie9K--66">
          <mxGeometry x="115" y="13" width="6" height="6" as="geometry" />
        </mxCell>
        <mxCell id="rsjg-_d3t-QEi8Iie9K--72" value="" style="ellipse;whiteSpace=wrap;html=1;aspect=fixed;" vertex="1" parent="rsjg-_d3t-QEi8Iie9K--66">
          <mxGeometry x="124" y="13" width="6" height="6" as="geometry" />
        </mxCell>
        <mxCell id="rsjg-_d3t-QEi8Iie9K--73" style="edgeStyle=orthogonalEdgeStyle;rounded=0;orthogonalLoop=1;jettySize=auto;html=1;entryX=0;entryY=0.5;entryDx=0;entryDy=0;" edge="1" parent="1" source="rsjg-_d3t-QEi8Iie9K--74" target="rsjg-_d3t-QEi8Iie9K--67">
          <mxGeometry relative="1" as="geometry" />
        </mxCell>
        <mxCell id="rsjg-_d3t-QEi8Iie9K--74" value="Backoffice Users&lt;br&gt;(영업인, 마케터 등)" style="shape=umlActor;verticalLabelPosition=bottom;verticalAlign=top;html=1;outlineConnect=0;" vertex="1" parent="1">
          <mxGeometry x="240" y="597" width="30" height="60" as="geometry" />
        </mxCell>
        <mxCell id="rsjg-_d3t-QEi8Iie9K--75" style="edgeStyle=orthogonalEdgeStyle;rounded=0;orthogonalLoop=1;jettySize=auto;html=1;" edge="1" parent="1" source="rsjg-_d3t-QEi8Iie9K--67" target="rsjg-_d3t-QEi8Iie9K--17">
          <mxGeometry relative="1" as="geometry" />
        </mxCell>
        <mxCell id="rsjg-_d3t-QEi8Iie9K--78" value="" style="endArrow=none;html=1;rounded=0;align=center;verticalAlign=top;endFill=0;labelBackgroundColor=none;endSize=2;exitX=0.25;exitY=0;exitDx=0;exitDy=0;entryX=1.042;entryY=0.497;entryDx=0;entryDy=0;entryPerimeter=0;" edge="1" source="rsjg-_d3t-QEi8Iie9K--12" target="rsjg-_d3t-QEi8Iie9K--79" parent="1">
          <mxGeometry relative="1" as="geometry">
            <mxPoint x="520" y="543" as="sourcePoint" />
            <Array as="points">
              <mxPoint x="660" y="680" />
            </Array>
          </mxGeometry>
        </mxCell>
        <mxCell id="rsjg-_d3t-QEi8Iie9K--79" value="" style="ellipse;html=1;fontSize=11;align=center;fillColor=none;points=[];aspect=fixed;resizable=0;verticalAlign=bottom;labelPosition=center;verticalLabelPosition=top;flipH=1;" vertex="1" parent="1">
          <mxGeometry x="678" y="676" width="8" height="8" as="geometry" />
        </mxCell>
        <mxCell id="rsjg-_d3t-QEi8Iie9K--82" value="" style="endArrow=none;dashed=1;html=1;dashPattern=1 3;strokeWidth=2;rounded=0;edgeStyle=orthogonalEdgeStyle;curved=1;entryX=1.316;entryY=0;entryDx=0;entryDy=0;entryPerimeter=0;" edge="1" parent="1" target="rsjg-_d3t-QEi8Iie9K--79">
          <mxGeometry width="50" height="50" relative="1" as="geometry">
            <mxPoint x="530" y="781.5294117647061" as="sourcePoint" />
            <mxPoint x="560" y="680" as="targetPoint" />
            <Array as="points">
              <mxPoint x="560" y="782" />
              <mxPoint x="560" y="666" />
              <mxPoint x="675" y="666" />
            </Array>
          </mxGeometry>
        </mxCell>
        <mxCell id="rsjg-_d3t-QEi8Iie9K--83" value="&lt;h1 style=&quot;margin-top: 0px;&quot;&gt;FormHandler Endpoint&lt;/h1&gt;&lt;p&gt;폼핸들러 엔드포인트, 마케팅에 용이 하도록 데이터 수집 및 조회에 용이 하도록 &lt;b&gt;&lt;u&gt;&lt;font color=&quot;#ff0000&quot;&gt;비인가&lt;/font&gt;&lt;/u&gt;&lt;/b&gt; 엔드포인트를 구성할 수 있게 제공하는 인터페이스&lt;/p&gt;&lt;p&gt;&lt;span style=&quot;background-color: initial;&quot;&gt;https://go.officekeeper.co.kr/l/963523/2024-02-26/5rqqtt&lt;/span&gt;&lt;/p&gt;" style="text;html=1;whiteSpace=wrap;overflow=hidden;rounded=0;" vertex="1" parent="1">
          <mxGeometry x="236" y="785" width="330" height="120" as="geometry" />
        </mxCell>
        <mxCell id="rsjg-_d3t-QEi8Iie9K--90" value="back-end app" style="rounded=1;whiteSpace=wrap;html=1;" vertex="1" parent="1">
          <mxGeometry x="769" y="428" width="120" height="60" as="geometry" />
        </mxCell>
        <mxCell id="rsjg-_d3t-QEi8Iie9K--92" style="edgeStyle=orthogonalEdgeStyle;rounded=0;orthogonalLoop=1;jettySize=auto;html=1;startArrow=classicThin;startFill=1;endArrow=none;endFill=0;entryX=0.377;entryY=0.53;entryDx=0;entryDy=0;entryPerimeter=0;dashed=1;" edge="1" parent="1" source="rsjg-_d3t-QEi8Iie9K--1">
          <mxGeometry relative="1" as="geometry">
            <mxPoint x="706.9999999999998" y="405" as="sourcePoint" />
            <mxPoint x="704.0999999999997" y="684" as="targetPoint" />
            <Array as="points">
              <mxPoint x="714" y="684" />
            </Array>
          </mxGeometry>
        </mxCell>
        <mxCell id="rsjg-_d3t-QEi8Iie9K--93" value="3. 파닷 Endpoint 호출&lt;br&gt;Prospects objects&lt;div&gt;(잠재 고객 객체)&lt;/div&gt;" style="edgeLabel;html=1;align=center;verticalAlign=middle;resizable=0;points=[];" vertex="1" connectable="0" parent="rsjg-_d3t-QEi8Iie9K--92">
          <mxGeometry x="-0.2509" relative="1" as="geometry">
            <mxPoint x="-66" y="16" as="offset" />
          </mxGeometry>
        </mxCell>
        <mxCell id="rsjg-_d3t-QEi8Iie9K--96" style="edgeStyle=orthogonalEdgeStyle;rounded=0;orthogonalLoop=1;jettySize=auto;html=1;entryX=0.985;entryY=0.607;entryDx=0;entryDy=0;entryPerimeter=0;" edge="1" parent="1" source="rsjg-_d3t-QEi8Iie9K--1" target="rsjg-_d3t-QEi8Iie9K--37">
          <mxGeometry relative="1" as="geometry">
            <Array as="points">
              <mxPoint x="595" y="384" />
              <mxPoint x="595" y="384" />
            </Array>
          </mxGeometry>
        </mxCell>
        <mxCell id="rsjg-_d3t-QEi8Iie9K--98" value="5. 페이지 리다이렉트 (깜빡임 발생)&lt;br&gt;https://org.officenext.net/ko/signin" style="edgeLabel;html=1;align=left;verticalAlign=middle;resizable=0;points=[];" vertex="1" connectable="0" parent="rsjg-_d3t-QEi8Iie9K--96">
          <mxGeometry x="0.3211" y="-3" relative="1" as="geometry">
            <mxPoint x="-116" y="88" as="offset" />
          </mxGeometry>
        </mxCell>
        <mxCell id="rsjg-_d3t-QEi8Iie9K--101" value="" style="endArrow=none;dashed=1;html=1;dashPattern=1 3;strokeWidth=2;rounded=0;edgeStyle=orthogonalEdgeStyle;curved=1;" edge="1" parent="1">
          <mxGeometry width="50" height="50" relative="1" as="geometry">
            <mxPoint x="546" y="450" as="sourcePoint" />
            <mxPoint x="558" y="386" as="targetPoint" />
          </mxGeometry>
        </mxCell>
        <mxCell id="rsjg-_d3t-QEi8Iie9K--103" value="&lt;h1 style=&quot;margin-top: 0px;&quot;&gt;방법1&amp;nbsp;&lt;/h1&gt;&lt;p style=&quot;line-height: 70%;&quot;&gt;기존 파닷 Endpoint URL로 백엔드에서 form-data 형식으로 호출 (야매)&lt;/p&gt;&lt;p style=&quot;line-height: 70%;&quot;&gt;&lt;span style=&quot;background-color: initial;&quot;&gt;https://go.officekeeper.co.kr/l/963523/2024-02-26/5rqqtt&lt;/span&gt;&lt;/p&gt;&lt;p style=&quot;line-height: 70%;&quot;&gt;&lt;span style=&quot;background-color: initial; font-size: 16px;&quot;&gt;&lt;br&gt;&lt;b&gt;&lt;br&gt;장점&amp;nbsp;&lt;/b&gt;&lt;/span&gt;&lt;/p&gt;&lt;p style=&quot;line-height: 70%;&quot;&gt;&lt;span style=&quot;background-color: initial;&quot;&gt;&amp;nbsp;- 개발 공수 적음&lt;/span&gt;&lt;/p&gt;&lt;p style=&quot;line-height: 70%;&quot;&gt;&lt;span style=&quot;background-color: initial;&quot;&gt;&lt;b&gt;&lt;font style=&quot;font-size: 16px;&quot;&gt;단점&lt;/font&gt;&lt;/b&gt;&lt;/span&gt;&lt;/p&gt;&lt;p style=&quot;line-height: 70%;&quot;&gt;&amp;nbsp;- 보안 취약, 비인가 url으로 불특정 다수에 의해 셀포 데이터 적재 위험&lt;/p&gt;" style="text;html=1;whiteSpace=wrap;overflow=hidden;rounded=0;" vertex="1" parent="1">
          <mxGeometry x="981" y="290" width="375" height="230" as="geometry" />
        </mxCell>
        <mxCell id="rsjg-_d3t-QEi8Iie9K--105" value="&lt;h1 style=&quot;margin-top: 0px;&quot;&gt;방법2&lt;/h1&gt;&lt;p&gt;공식적인 파닷 API를 이용해 인증을 거쳐 백엔드에서 호출&lt;/p&gt;&lt;p style=&quot;line-height: 90%;&quot;&gt;&lt;span style=&quot;background-color: initial;&quot;&gt;&lt;br&gt;&lt;b&gt;&lt;font style=&quot;font-size: 16px;&quot;&gt;장점&amp;nbsp;&lt;/font&gt;&lt;/b&gt;&lt;/span&gt;&lt;/p&gt;&lt;p style=&quot;line-height: 90%;&quot;&gt;&lt;span style=&quot;background-color: initial;&quot;&gt;&amp;nbsp;- 인증을 필요로 하기 때문에 보안성 높고, 정공법인 방법&lt;/span&gt;&lt;/p&gt;&lt;p style=&quot;line-height: 90%;&quot;&gt;&lt;span style=&quot;background-color: initial;&quot;&gt;&lt;b&gt;&lt;font style=&quot;font-size: 17px;&quot;&gt;단점&lt;/font&gt;&lt;/b&gt;&lt;/span&gt;&lt;/p&gt;&lt;p style=&quot;line-height: 90%;&quot;&gt;&amp;nbsp;- 개발 공수 증가&lt;/p&gt;" style="text;html=1;whiteSpace=wrap;overflow=hidden;rounded=0;" vertex="1" parent="1">
          <mxGeometry x="976" y="555" width="330" height="230" as="geometry" />
        </mxCell>
      </root>
    </mxGraphModel>
  </diagram>
</mxfile>
